# xmcd
#
# Track frame offsets: 
#        150
#        14278
#        26659
#        43031
#        59355
#        74184
#        90771
#        109269
#        128020
#        144594
#        159524
#
# Disc length: 2414 seconds
#
# Revision: 0
# Processed by: cddbd v1.5.2PL0 Copyright (c) Steve Scherf et al.
# Submitted via: ExactAudioCopy v1.0b1
#
DISCID=93096c0b
DTITLE=Stella Roin - Dear Stranger
DYEAR=2011
DGENRE=Jazz
TTITLE0=Brand New World
TTITLE1=Wrinkles
TTITLE2=Burn
TTITLE3=Dear Stranger
TTITLE4=Handmade
TTITLE5=Colours
TTITLE6=Goosebumps
TTITLE7=Beach Song
TTITLE8=Malou
TTITLE9=Farewell Dance
TTITLE10=Ovwint
EXTD=
EXTT0=
EXTT1=
EXTT2=
EXTT3=
EXTT4=
EXTT5=
EXTT6=
EXTT7=
EXTT8=
EXTT9=
EXTT10=
PLAYORDER=
